<?xml version="1.0" standalone="no"?>
<!DOCTYPE svg PUBLIC "-//W3C//DTD SVG 20010904//EN"
 "http://www.w3.org/TR/2001/REC-SVG-20010904/DTD/svg10.dtd">
<svg version="1.0" xmlns="http://www.w3.org/2000/svg"
 width="1184.000000pt" height="864.000000pt" viewBox="0 0 1184.000000 864.000000"
 preserveAspectRatio="xMidYMid meet">

<g transform="translate(0.000000,864.000000) scale(0.100000,-0.100000)"
fill="#000000" stroke="none">
<path d="M0 4320 l0 -4320 5920 0 5920 0 0 4320 0 4320 -5920 0 -5920 0 0
-4320z m5430 1300 c29 -29 27 -83 -5 -108 -22 -17 -25 -28 -25 -83 0 -167 -13
-349 -26 -349 -9 0 -13 50 -16 203 l-3 202 -28 27 c-33 33 -36 75 -7 106 27
29 83 29 110 2z m-1715 -206 l20 -24 669 -2 668 -3 79 -86 79 -87 0 -251 0
-252 22 12 c12 7 45 36 73 65 l51 54 49 -51 c28 -28 62 -57 78 -65 l27 -15 0
143 0 142 197 198 197 198 599 0 599 0 19 24 c39 50 107 38 130 -22 22 -57
-46 -121 -98 -94 -10 6 -27 20 -37 31 -19 21 -23 21 -605 21 l-586 0 -188
-188 -188 -188 2 -142 c1 -139 1 -142 24 -148 12 -3 36 -4 51 -1 28 4 28 5 7
12 -13 4 -23 11 -23 16 0 11 5 11 72 -2 l56 -11 0 -47 c0 -26 7 -62 16 -79 16
-31 19 -32 79 -33 34 0 113 -2 176 -5 l113 -6 197 196 c108 108 201 196 207
196 6 0 16 11 22 25 23 51 92 52 126 3 23 -32 20 -65 -9 -93 -31 -32 -69 -32
-101 0 -14 14 -28 25 -32 25 -4 0 -93 -85 -197 -190 l-190 -190 -207 0 c-118
0 -208 -4 -208 -9 0 -11 70 -100 93 -120 25 -20 22 -29 -33 -87 -80 -85 -82
-84 153 -84 l202 0 120 -120 120 -120 73 0 c67 0 76 2 94 25 25 32 79 34 108
5 30 -30 27 -83 -6 -109 -37 -29 -71 -26 -104 9 -27 28 -32 30 -107 30 l-78 0
-113 120 -113 120 -210 0 -209 0 -2 -27 c-1 -16 -2 -48 -2 -73 -1 -42 -3 -45
-28 -48 -16 -2 -28 -8 -28 -13 0 -12 27 -11 53 2 l22 11 -21 -21 c-11 -12 -31
-23 -45 -25 -13 -2 -31 -6 -39 -9 -8 -3 -23 -5 -33 -4 -29 1 -15 31 18 37 22
4 26 7 13 12 -9 4 -29 3 -45 -1 l-28 -7 -3 -160 -2 -159 187 -188 188 -188
586 3 586 3 25 29 c49 57 128 29 128 -46 0 -75 -74 -105 -128 -50 l-27 27
-600 3 -599 3 -191 192 c-190 192 -190 192 -190 237 -1 25 -2 98 -3 163 l-2
118 -22 -12 c-13 -6 -46 -34 -75 -62 l-52 -50 -66 61 c-36 34 -70 62 -75 62
-6 0 -10 -107 -10 -281 l0 -281 25 -30 c31 -36 32 -65 3 -95 -31 -33 -80 -31
-108 4 -26 33 -20 69 15 98 l25 21 0 291 c0 331 9 303 -95 303 l-64 0 -3 73
-3 72 -210 3 -209 2 -216 -215 -216 -216 -125 3 c-124 3 -124 3 -151 -25 -34
-34 -62 -34 -95 -1 -20 20 -24 31 -19 57 8 40 23 55 62 63 26 5 35 1 57 -25
l26 -31 119 0 119 0 211 215 211 215 205 0 c165 0 206 3 206 13 0 8 -26 42
-57 76 l-57 63 31 27 c36 31 83 93 83 109 0 9 -57 12 -208 12 l-207 0 -120
120 -120 120 -183 0 -184 0 -28 -30 c-51 -55 -130 -28 -130 45 0 74 88 104
130 45 l21 -30 202 0 202 0 110 -116 110 -116 210 1 c150 2 212 5 217 14 4 7
8 35 8 63 l0 51 71 7 c39 3 75 9 80 12 5 3 9 119 9 259 l0 253 -71 76 -71 76
-653 0 -653 0 -30 -30 c-37 -37 -74 -39 -107 -5 -41 40 -32 99 19 121 38 16
65 10 91 -22z m633 -365 c2 -155 2 -157 -20 -163 -13 -3 -157 -6 -320 -6
l-298 0 0 -412 c0 -227 -3 -558 -7 -735 l-6 -323 -182 0 -183 0 -6 613 c-4
336 -6 666 -4 732 l3 120 -312 3 -313 2 0 165 0 165 823 -2 822 -3 3 -156z
m672 -16 l0 -176 -23 21 c-18 17 -36 22 -76 22 -46 0 -57 -4 -82 -31 -24 -25
-29 -40 -29 -79 0 -41 5 -53 31 -79 17 -17 29 -39 27 -48 -3 -16 -17 -18 -118
-18 l-115 0 -3 270 c-1 148 0 275 3 282 3 10 50 13 195 13 l190 0 0 -177z
m1320 40 c-274 -279 -433 -433 -441 -427 -12 7 -11 44 1 44 18 0 50 64 50 101
0 67 -71 127 -136 114 -19 -3 -50 -20 -69 -36 -28 -25 -37 -28 -55 -19 -11 6
-20 14 -20 18 0 4 75 82 167 174 l168 168 234 0 235 0 -134 -137z m1106 -275
c115 -227 258 -511 318 -631 60 -120 112 -216 116 -215 4 2 149 284 322 628
l315 625 223 3 c129 1 226 -2 229 -7 3 -5 5 -410 3 -900 l-2 -891 -175 0 -175
0 -2 658 -3 657 -142 -280 c-78 -154 -218 -428 -311 -610 l-169 -330 -115 -3
-116 -3 -251 493 c-348 685 -365 718 -373 718 -5 0 -8 -292 -8 -650 l0 -650
-175 0 -175 0 0 900 0 900 229 0 228 0 209 -412z m-2017 186 c28 -35 26 -59
-5 -90 -19 -20 -31 -24 -52 -19 -40 10 -62 34 -62 68 0 66 78 93 119 41z
m-466 -144 c14 -11 29 -29 32 -40 5 -15 12 -18 43 -13 20 3 49 12 65 20 15 7
27 12 27 9 0 -2 3 -12 6 -20 8 -20 -38 -40 -111 -51 -55 -8 -65 -16 -65 -60
-1 -35 -34 -115 -49 -115 -19 0 -21 18 -6 60 22 61 19 84 -10 100 -45 24 -46
97 -3 118 33 15 42 14 71 -8z m923 -14 c22 -35 14 -67 -22 -91 -28 -17 -31
-24 -27 -55 3 -19 9 -48 15 -63 8 -21 8 -31 -1 -40 -19 -19 -38 15 -51 93
l-12 69 -46 7 c-61 9 -122 33 -122 48 0 22 12 25 41 11 44 -23 96 -19 110 8
16 30 28 37 66 37 24 0 37 -7 49 -24z m-1673 -418 c12 -6 28 -19 35 -30 12
-16 30 -18 207 -18 169 0 194 -2 189 -15 -5 -13 -36 -15 -195 -15 -174 0 -189
-1 -201 -19 -51 -72 -158 -26 -131 56 5 15 20 34 34 40 30 16 35 16 62 1z
m597 -3 c55 -28 48 -101 -11 -126 -24 -9 -33 -9 -54 5 -63 42 -46 124 28 135
4 0 21 -6 37 -14z m1863 4 c12 -7 25 -17 29 -23 15 -21 8 -72 -12 -94 -28 -30
-68 -28 -103 6 l-28 27 -224 3 c-189 3 -223 6 -218 18 4 12 44 14 229 14 143
0 224 4 224 10 0 18 39 50 61 50 11 0 30 -5 42 -11z m-641 -16 c18 -16 24 -68
10 -89 -13 -19 -50 -34 -69 -27 -52 18 -71 77 -36 115 20 22 70 23 95 1z
m-242 -255 c0 -9 4 -8 10 2 5 8 10 11 10 5 0 -19 -17 -36 -31 -32 -8 2 -11 2
-6 0 4 -3 7 -10 7 -16 0 -7 -6 -5 -15 4 -9 9 -13 23 -9 32 7 20 34 23 34 5z
m-850 -70 c11 -24 20 -59 20 -78 0 -45 15 -60 60 -60 40 0 120 -33 120 -50 0
-19 -27 -22 -52 -6 -13 8 -39 17 -58 21 -32 5 -36 3 -50 -27 -12 -27 -21 -34
-51 -36 -46 -4 -69 18 -69 64 0 28 6 38 30 52 24 14 30 24 30 52 0 19 -9 49
-19 67 -11 17 -17 34 -14 37 16 16 36 2 53 -36z m930 28 c0 -1 -9 -19 -20 -41
-29 -56 -26 -91 7 -107 62 -30 48 -118 -19 -118 -33 0 -68 24 -68 47 0 19 -80
17 -109 -3 -17 -13 -25 -14 -34 -4 -17 16 24 48 71 55 96 15 96 15 103 78 7
64 31 109 54 101 8 -4 15 -7 15 -8z m-110 -21 c0 -8 -4 -15 -10 -15 -5 0 -7 7
-4 15 4 8 8 15 10 15 2 0 4 -7 4 -15z m-912 -37 c19 -19 14 -38 -18 -75 -48
-54 -36 -131 26 -178 29 -22 106 -19 138 6 l26 20 0 -194 c0 -168 -2 -196 -16
-201 -9 -3 -94 -6 -190 -6 l-173 0 -3 320 -3 320 101 0 c64 0 104 -4 112 -12z
m1643 -590 l20 -28 -234 0 -234 0 -135 138 c-158 159 -227 234 -228 244 0 4 9
12 21 19 17 9 24 7 40 -10 25 -26 90 -46 125 -37 15 4 39 20 54 36 49 52 48
120 -3 170 -26 26 -28 31 -16 46 12 15 42 -13 291 -267 153 -156 287 -296 299
-311z m-1066 337 c30 -30 31 -54 4 -89 -40 -50 -119 -21 -119 44 0 64 70 91
115 45z m-27 -395 c4 -211 5 -215 28 -237 28 -26 31 -68 8 -101 -23 -33 -86
-31 -113 4 -28 35 -26 56 7 95 l27 33 3 214 c3 189 5 213 19 210 14 -3 17 -31
21 -218z m5907 -2647 c23 -60 96 -133 157 -158 27 -11 48 -23 48 -26 0 -4 -21
-14 -47 -24 -60 -23 -133 -96 -158 -157 -11 -27 -23 -48 -26 -48 -4 0 -14 21
-24 47 -23 60 -96 133 -157 158 -27 11 -48 23 -48 26 0 4 21 14 47 24 60 23
133 96 158 157 11 27 23 48 26 48 4 0 14 -21 24 -47z"/>
<path d="M5344 4709 c-41 -43 -107 -80 -177 -98 l-60 -16 -12 -55 c-6 -30 -21
-75 -33 -99 -20 -41 -20 -43 -2 -26 20 18 20 17 20 -28 0 -26 3 -47 6 -47 3 0
24 16 47 35 22 19 44 35 49 35 4 0 8 9 8 20 0 14 16 31 50 52 28 17 50 35 50
39 0 4 32 40 70 80 39 39 70 75 70 78 0 4 -13 19 -28 34 l-28 27 -30 -31z"/>
<path d="M5731 4624 c0 -11 3 -14 6 -6 3 7 2 16 -1 19 -3 4 -6 -2 -5 -13z"/>
<path d="M5601 4598 c15 -6 34 -25 42 -42 15 -30 16 -30 16 -6 1 36 -9 47 -49
53 -33 6 -33 6 -9 -5z"/>
<path d="M5730 4584 c0 -8 5 -12 10 -9 6 4 8 11 5 16 -9 14 -15 11 -15 -7z"/>
<path d="M5502 4400 c0 -14 2 -19 5 -12 2 6 2 18 0 25 -3 6 -5 1 -5 -13z"/>
<path d="M5681 4389 l-23 -30 22 -24 c18 -19 21 -31 16 -57 l-6 -33 16 25 c10
14 28 37 42 52 l24 26 -34 35 -33 36 -24 -30z"/>
<path d="M5012 4367 l-22 -23 25 -24 24 -23 -2 47 c-1 25 -2 46 -3 46 0 0 -10
-10 -22 -23z"/>
<path d="M5251 4285 c-1 -14 18 -31 60 -57 33 -21 64 -38 69 -38 19 0 130 76
130 89 0 10 -9 6 -27 -11 -16 -14 -45 -33 -66 -42 -36 -15 -40 -14 -93 10 -32
15 -59 34 -64 47 -8 21 -9 21 -9 2z"/>
<path d="M5085 4213 c4 -10 10 -41 12 -68 l5 -51 49 -11 c61 -15 137 -53 189
-94 43 -35 41 -35 100 17 41 36 107 66 163 73 l52 6 6 50 c4 28 9 62 13 75 l7
25 -15 -25 c-9 -14 -20 -41 -26 -61 -9 -33 -15 -38 -58 -49 -26 -6 -67 -23
-92 -36 l-45 -25 -22 25 c-12 14 -26 32 -30 40 -4 7 -32 27 -61 43 l-54 31
-36 -39 c-56 -58 -112 -60 -118 -4 -3 29 -31 95 -41 95 -3 0 -2 -8 2 -17z"/>
<path d="M5210 4206 c0 -2 7 -7 16 -10 8 -3 12 -2 9 4 -6 10 -25 14 -25 6z"/>
<path d="M5504 4184 c-18 -14 -18 -15 4 -4 12 6 22 13 22 15 0 8 -5 6 -26 -11z"/>
<path d="M5439 4150 c-13 -10 -19 -19 -13 -20 7 0 22 9 35 20 13 10 19 19 13
20 -7 0 -22 -9 -35 -20z"/>
</g>
</svg>
